<svg width="20" height="21" viewBox="0 0 20 21" fill="none" xmlns="http://www.w3.org/2000/svg">
    <mask id="mask0_77_220" style="mask-type:luminance" maskUnits="userSpaceOnUse" x="0" y="0" width="20" height="21">
    <path d="M0.335571 0.298401H19.5041V20.1128H0.335571V0.298401Z" fill="white"/>
    </mask>
    <g mask="url(#mask0_77_220)">
    <mask id="mask1_77_220" style="mask-type:luminance" maskUnits="userSpaceOnUse" x="0" y="0" width="20" height="21">
    <path d="M11.5283 14.4934L11.6486 10.4547C11.6486 10.3229 11.6269 10.2467 11.587 10.2171L11.5138 10.1735C9.46512 10.6041 7.92015 11.0098 6.85409 11.3896C5.79165 11.7657 5.06845 12.2222 4.67782 12.7586C4.28719 13.2955 4.09309 14.0369 4.09309 14.979C4.09309 15.8921 4.26119 16.5856 4.5974 17.0567C4.93663 17.5277 5.34237 17.8385 5.81342 17.9843C6.28447 18.1306 6.69687 18.2038 7.04759 18.2038C7.88024 18.2038 8.63247 18.0103 9.3079 17.6263C9.98334 17.2429 10.5203 16.7501 10.9218 16.1732C11.3276 15.5927 11.5319 15.0304 11.5319 14.4934M18.0759 17.5682C17.7765 18.2691 20.0514 19.5583 19.1969 19.6314C18.452 19.6973 15.8996 19.909 14.7676 19.9489C13.6864 19.9858 13.0509 19.6206 12.6204 18.9596C12.1892 18.2987 11.9189 17.6342 11.8131 16.9581H11.7768C11.4406 17.5314 10.8087 18.4118 9.73179 19.1054C8.21584 20.0771 6.7005 20.1061 6.0432 20.1097C5.31274 20.1134 4.07495 20.0952 3.94736 20.0662L3.78288 19.701C3.23867 19.467 2.99074 19.3357 2.71682 19.1785C1.76746 18.6379 1.21599 18.5835 0.985605 18.3386C0.237003 17.5501 0.306542 16.0856 0.383337 15.3188C0.430503 14.8405 0.474645 13.1425 1.96822 12.0142C2.64365 11.5063 3.26104 10.7939 5.37502 10.1735C6.92725 9.717 8.93904 9.27497 11.4152 8.84081L11.5682 8.58865C11.7 7.92047 11.7327 7.2009 11.7327 6.09432C11.7327 4.61526 11.4297 3.56371 10.8269 2.94693C10.2246 2.32954 9.32242 2.01934 8.13602 2.01934C7.54403 2.01934 6.98167 2.18321 6.4562 2.5049C5.93375 2.82599 5.67071 3.17308 5.67071 3.55645L5.74388 3.78321C6.0432 4.21012 6.12 4.45139 6.12 4.72531C6.12 5.39349 5.93012 5.89357 5.55038 6.21526C5.17427 6.53998 4.71773 6.70082 4.18077 6.70082C3.53073 6.70082 3.04517 6.47769 2.72045 6.03264C2.39876 5.58699 2.24214 5.13408 2.24214 4.67754C2.24214 4.30143 2.32257 3.98034 2.48644 3.71004L2.88855 3.06363C3.83065 2.09614 4.83806 1.40196 5.91561 0.985932C6.98893 0.565675 8.02597 0.354034 9.02672 0.354034C10.5898 0.354034 11.7841 0.638842 12.6167 1.20483C13.4524 1.76719 14.0335 2.44988 14.351 3.24262C14.6763 4.03476 14.8365 4.77973 14.8365 5.47754C14.8365 6.41964 14.8039 7.66832 14.738 9.22055C14.6727 10.7685 14.6394 12.5106 14.6394 14.4462C14.6394 15.7645 14.7126 16.6733 14.8583 17.1704C15.0047 17.6668 15.2641 17.9153 15.6438 17.9153L16.0489 17.8385C16.7026 17.4074 17.0316 17.0277 17.2178 16.7906L17.3968 16.816C17.5939 16.845 17.8382 16.8856 17.9737 17.0422L18.0867 17.4733" fill="white"/>
    </mask>
    <g mask="url(#mask1_77_220)">
    <path d="M-18.7187 -11.1271H49.8231V22.0423H-18.7187V-11.1271Z" fill="#C80036"/>
    </g>
    </g>
    </svg>
    