<svg width="22" height="31" viewBox="0 0 22 31" fill="none" xmlns="http://www.w3.org/2000/svg">
    <mask id="mask0_77_211" style="mask-type:luminance" maskUnits="userSpaceOnUse" x="0" y="0" width="22" height="31">
    <path d="M0.0947266 0.700836H21.2055V30.2289H0.0947266V0.700836Z" fill="white"/>
    </mask>
    <g mask="url(#mask0_77_211)">
    <mask id="mask1_77_211" style="mask-type:luminance" maskUnits="userSpaceOnUse" x="0" y="0" width="22" height="31">
    <path d="M20.6184 30.2156H12.5011C12.1794 30.2156 12.0222 30.0698 12.0222 29.7735C12.0222 29.4488 12.154 29.1785 12.4243 28.9596C13.4432 28.8278 14.0781 28.6603 14.3339 28.4589C14.5933 28.2582 14.7354 27.9407 14.7686 27.5096L14.9216 24.8695C14.9513 23.9933 14.9658 22.9484 14.9658 21.7367V19.8778C14.9658 18.7495 14.9107 17.6719 14.8049 16.6531C14.6991 15.6305 14.3889 14.7942 13.8773 14.1515C13.3627 13.502 12.4896 13.1767 11.2518 13.1767C10.1452 13.1767 9.20311 13.4252 8.42185 13.9217C7.6406 14.4181 7.04861 15.0645 6.63984 15.8609C6.23833 16.6567 6.03758 17.5111 6.03758 18.4242V22.66C6.03758 23.5477 6.0412 24.442 6.05209 25.3442C6.0666 26.2464 6.08837 26.969 6.12102 27.506C6.17242 28.0212 6.37318 28.39 6.72389 28.6162C7.07461 28.8423 7.76093 28.9596 8.78708 28.9596C8.97333 29.1531 9.06826 29.3829 9.06826 29.6532L8.93281 30.2156H0.585118C0.26403 30.2156 0.106812 30.0698 0.106812 29.7735C0.106812 29.4488 0.238633 29.1785 0.508323 28.9596C1.52722 28.8278 2.16274 28.6603 2.41853 28.4589C2.67794 28.2582 2.82004 27.9407 2.85269 27.5096L2.96637 25.1725C2.9954 24.4166 3.00991 23.6209 3.00991 22.7846V5.6653C3.00991 5.01526 2.97363 4.55147 2.90409 4.27391C2.83818 3.98911 2.65556 3.76598 2.3635 3.60574C2.07144 3.44489 1.57499 3.25502 0.873554 3.04338L0.629261 2.75857C0.629261 2.46288 0.527069 2.06076 0.661914 1.87452C1.54959 1.68102 2.62291 1.68828 3.5505 1.41072C4.48172 1.12592 5.20492 0.892508 5.71951 0.702637L6.02609 0.731662C6.32601 0.837482 6.4022 0.983816 6.4022 1.22811V1.3049C6.29638 3.13831 6.20507 4.90581 6.13614 6.61466C6.07023 8.3235 6.03758 10.175 6.03758 12.1687V14.55C6.67975 13.5311 7.53417 12.6984 8.60084 12.0556C9.6669 11.4056 10.7771 11.0809 11.9308 11.0809C12.5736 11.0809 13.2533 11.1831 13.9686 11.3838C14.6846 11.5846 15.3491 11.9534 15.9702 12.4795C16.5869 13.0014 17.084 13.7536 17.4601 14.7398C17.8362 15.7182 18.0225 16.9747 18.0225 18.5119V22.7846C18.0225 23.6716 18.0297 24.5484 18.0442 25.4101C18.0587 26.2718 18.0769 26.9732 18.1059 27.5096C18.1863 28.0248 18.4058 28.3936 18.7674 28.6198C19.1321 28.8466 19.7748 28.9633 20.6915 28.9633C20.9582 29.1822 21.0931 29.4524 21.0931 29.7772L20.9292 30.2192" fill="white"/>
    </mask>
    <g mask="url(#mask1_77_211)">
    <path d="M-1.71875 -1.12714H66.8231V32.0423H-1.71875V-1.12714Z" fill="#C80036"/>
    </g>
    </g>
    </svg>
    