<svg width="47" height="48" viewBox="0 0 47 48" fill="none" xmlns="http://www.w3.org/2000/svg">
    <mask id="mask0_77_202" style="mask-type:luminance" maskUnits="userSpaceOnUse" x="0" y="0" width="47" height="48">
    <path d="M0.238831 0.0568542H46.9732V47.89H0.238831V0.0568542Z" fill="white"/>
    </mask>
    <g mask="url(#mask0_77_202)">
    <mask id="mask1_77_202" style="mask-type:luminance" maskUnits="userSpaceOnUse" x="0" y="0" width="47" height="48">
    <path d="M20.6887 16.2969L20.849 16.6766C17.4785 14.3946 17.3509 9.16524 13.0201 7.61663C9.38654 6.31716 8.56477 10.3045 5.82252 12.4263C3.7297 14.7779 1.23234 14.8511 0.432343 17.444C-0.451104 20.8067 2.03174 21.2487 1.22509 25.3206C0.790317 28.0115 2.66001 27.639 5.86243 28.5781C8.14512 29.2499 8.86409 28.6107 10.0511 30.7326C8.91549 32.0762 -1.51051 42.6516 7.5495 42.9291C7.769 45.0764 10.2083 47.0228 12.2201 46.0511C13.4984 47.5852 15.5507 48.4215 16.803 46.3323C20.3126 48.6694 21.8715 48.4178 24.205 44.6857C25.9761 41.8516 27.1704 38.5288 26.1587 35.2127C25.8153 38.0505 27.9661 40.6652 29.8213 42.5965C30.6104 43.4147 31.6801 44.9669 32.9802 44.9046C34.7513 44.8206 33.8455 43.9371 34.897 43.2943C35.1782 43.1226 35.9159 42.5161 36.234 42.3081C36.8659 41.8921 37.7856 42.5639 38.4798 42.0051C39.4763 41.2015 38.7537 39.281 39.5828 38.423C40.2691 37.7107 40.8822 36.8381 41.675 36.4142C44.0961 35.1293 41.704 34.6763 46.6231 33.5589C47.4413 30.8819 46.3673 28.9028 44.5563 27.0845C42.7447 25.2656 40.6089 23.896 38.2567 22.9285C36.9022 22.3698 33.1991 22.7937 34.189 21.1906C35.2883 19.6898 39.2103 15.9353 35.3463 15.0773C36.9754 12.2183 39.8488 8.42752 37.3327 5.18096C36.9276 4.65548 35.5803 4.86712 35.3064 4.57143C34.7295 3.95405 34.8136 2.58504 34.2289 1.99668C32.8339 0.601666 32.436 1.46758 29.7778 1.60968C27.9776 -3.31972 22.949 5.80197 22.1345 7.58035C21.6599 8.61013 20.1409 14.4714 20.6887 16.2969Z" fill="white"/>
    </mask>
    <g mask="url(#mask1_77_202)">
    <path d="M0.238831 0.167511H46.9007V47.9226H0.238831V0.167511Z" fill="#C80036"/>
    </g>
    </g>
    </svg> 