<svg width="22" height="20" viewBox="0 0 22 20" fill="none" xmlns="http://www.w3.org/2000/svg">
    <mask id="mask0_77_229" style="mask-type:luminance" maskUnits="userSpaceOnUse" x="0" y="0" width="22" height="20">
    <path d="M0.49353 0.79303H21.6636V19.958H0.49353V0.79303Z" fill="white"/>
    </mask>
    <g mask="url(#mask0_77_229)">
    <mask id="mask1_77_229" style="mask-type:luminance" maskUnits="userSpaceOnUse" x="0" y="0" width="22" height="20">
    <path d="M21.074 19.909H13.0039C12.6532 19.909 12.4778 19.7627 12.4778 19.467C12.4778 19.1676 12.609 18.9119 12.8793 18.6966C13.9315 18.5575 14.5809 18.3973 14.8331 18.211C15.0925 18.0248 15.2309 17.714 15.2606 17.2834C15.315 16.3958 15.3628 15.5927 15.4063 14.8804C15.4504 14.1687 15.4686 13.2187 15.4686 12.036V9.61118C15.4686 8.4532 15.4063 7.37263 15.286 6.36099C15.1656 5.34935 14.8403 4.53181 14.3112 3.90354C13.7888 3.27165 12.9198 2.95419 11.7111 2.95419C10.6045 2.95419 9.66238 3.19848 8.88113 3.68404C8.09927 4.16658 7.50426 4.80513 7.09851 5.6015C6.697 6.39364 6.49625 7.24504 6.49625 8.15751V12.5983C6.49625 13.4854 6.49987 14.3471 6.51076 15.1834C6.52527 16.016 6.56216 16.7029 6.61658 17.2466C6.697 17.7545 6.92376 18.127 7.3035 18.3568C7.68325 18.5871 8.32966 18.7002 9.24213 18.7002C9.458 18.9119 9.57108 19.1422 9.57108 19.3865L9.42111 19.9126H1.00388C0.697305 19.7627 0.525574 19.7663 0.525574 19.4706C0.525574 19.1967 0.642278 18.9415 0.883548 18.7002C1.24878 18.6271 1.84016 18.4589 2.43941 18.032C2.62928 17.8966 2.94311 17.6777 3.22792 17.2871L3.28294 17.2139C3.75399 16.4689 3.50184 14.6905 3.42867 13.7593C3.40328 13.4673 3.4069 12.8868 3.41416 11.7252C3.41779 10.6555 3.45105 9.78291 3.47644 9.20967V5.61602C3.47644 4.99924 3.43593 4.55358 3.35551 4.28329C3.27569 4.01299 3.09307 3.80861 2.80826 3.65865C2.52709 3.50566 2.08143 3.33756 1.46042 3.14769L1.20887 2.7492C1.20887 2.39908 1.30381 2.24912 1.49005 2.13605L3.78665 1.47512C4.51711 1.21571 5.123 0.993189 5.60554 0.806946C6.0651 0.806946 6.29912 1.09175 6.29912 1.65774L6.72663 3.71004C7.42746 2.5817 7.89851 2.49765 9.00146 1.84035C10.108 1.18306 11.24 0.850483 12.3938 0.850483C13.4163 0.850483 14.3947 1.05487 15.3222 1.46061C16.2498 1.86212 17.0093 2.59258 17.6049 3.65865C18.1963 4.72169 18.4956 6.2588 18.4956 8.27845V12.5983C18.4956 13.46 18.4993 14.3144 18.5102 15.1616C18.5253 16.0088 18.5434 16.7029 18.5724 17.2466C18.6783 17.7545 18.9159 18.127 19.2811 18.3568C19.6464 18.5871 20.2849 18.7002 21.198 18.7002C21.4429 18.8901 21.5632 19.1459 21.5632 19.4706L21.3987 19.9126" fill="white"/>
    </mask>
    <g mask="url(#mask1_77_229)">
    <path d="M-31.7187 -11.1271H36.8231V22.0423H-31.7187V-11.1271Z" fill="#C80036"/>
    </g>
    </g>
    </svg>
    